<?xml version="1.0" encoding="UTF-8"?>
<svg width="156px" height="156px" viewBox="0 0 156 156" version="1.1" xmlns="http://www.w3.org/2000/svg" xmlns:xlink="http://www.w3.org/1999/xlink">
    <!-- Generator: Sketch 41 (35326) - http://www.bohemiancoding.com/sketch -->
    <title>earth</title>
    <desc>Created with Sketch.</desc>
    <defs></defs>
    <g id="Page-1" stroke="none" stroke-width="1" fill="none" fill-rule="evenodd">
        <g id="earth">
            <circle id="Oval" fill="#75A9F9" cx="78" cy="78" r="78"></circle>
            <path d="M8.6,68.2 L22.6,64.6 L18.4,58 L19.8,50.4 C20.4,55.2 22,59.2 26.8,60.8 L30.8,85.2 L44.8,68.6 L52.2,78.4 L52.2,88.2 L55.2,94.2 L59,97.2 L59,93.6 L53.4,87.2 L55.4,81.4 L61,88.4 L66.6,84.6 L62,75.4 C70,74 75.6,71 80.2,63.8 L76.6,56.6 L82,53 L85.4,58.2 L88.2,56.4 L85,51.2 C89.8,47.8 93.4,44.4 93.4,37 L88.8,35.4 L91.8,30.8 L99.8,29.6 L104.4,37.4 L104.4,20.2 L77.8,21 L75.2,17.6 L51.6,18.8 L55.4,14 L48.4,14.6 C27.4,24.4 12,44.4 8.6,68.2 L8.6,68.2 Z M24,42.6 L28.8,34.8 L32.8,34 L25.2,44.8 L24,42.6 Z M48.6,91.6 C53.2,107.2 63.8,111.2 83.8,111.2 C66.8,109.2 60.2,104.8 59,99.2 L48.6,91.6 Z M64.4,97.8 C65.4,101.6 68.8,104.4 72.8,105 L76.6,93.4 L74.2,91.4 L64.4,97.8 Z M70.4,123.8 L74.2,134.4 L90.4,130.8 L97.8,135.2 C104.8,134.4 109.2,131.4 112.8,124.8 L104.4,110.4 L101.6,118.2 L95.8,116.2 L97,112.4 L91.8,111.8 L70.4,123.8 Z M76.2,105.6 L82.8,105.6 L78,99 L76.2,105.6 Z M77.6,80.8 L79.8,84 L81.2,79 L79,77 L77.6,80.8 Z M82.2,89.8 L84,93.2 L86.4,91.4 L85,87.2 L82.2,89.8 Z M87.8,60 L89.2,62 L99.2,55.6 L98.2,49 L100.8,46.8 L95,37.4 L97.2,53 L87.8,60 Z M89.6,98.8 L91.6,102.8 L99.6,104.8 L101.2,108 L113,108.8 L109.8,103 L89.6,98.8 Z M99.8,137 L100.4,140 L104.4,136 L99.8,137 Z M99.8,16 L118.2,26.6 L112.4,19.2 L116.2,19.2 C112,16.4 107.2,14.2 102.4,12.4 L99.8,16 Z" id="Shape" fill="#92D36E"></path>
        </g>
    </g>
</svg>