<?xml version="1.0" encoding="UTF-8"?>
<svg width="515px" height="224px" viewBox="0 0 515 224" version="1.1" xmlns="http://www.w3.org/2000/svg" xmlns:xlink="http://www.w3.org/1999/xlink">
    <!-- Generator: Sketch 41 (35326) - http://www.bohemiancoding.com/sketch -->
    <title>Group</title>
    <desc>Created with Sketch.</desc>
    <defs></defs>
    <g id="Page-2" stroke="none" stroke-width="1" fill="none" fill-rule="evenodd">
        <g id="Group" fill="#FFFFFF">
            <polygon id="Star" points="13.4894348 47.6334369 11.0172989 49 11.4894348 46.1055728 9.48943484 44.0557281 12.2533669 43.6334369 13.4894348 41 14.7255028 43.6334369 17.4894348 44.0557281 15.4894348 46.1055728 15.9615708 49"></polygon>
            <polygon id="Star" points="93 6.63343685 90.527864 8 91 5.10557281 89 3.05572809 91.763932 2.63343685 93 0 94.236068 2.63343685 97 3.05572809 95 5.10557281 95.472136 8"></polygon>
            <polygon id="Star" points="121 70.6334369 118.527864 72 119 69.1055728 117 67.0557281 119.763932 66.6334369 121 64 122.236068 66.6334369 125 67.0557281 123 69.1055728 123.472136 72"></polygon>
            <polygon id="Star" points="180 16.6334369 177.527864 18 178 15.1055728 176 13.0557281 178.763932 12.6334369 180 10 181.236068 12.6334369 184 13.0557281 182 15.1055728 182.472136 18"></polygon>
            <polygon id="Star" points="344 199.633437 341.527864 201 342 198.105573 340 196.055728 342.763932 195.633437 344 193 345.236068 195.633437 348 196.055728 346 198.105573 346.472136 201"></polygon>
            <polygon id="Star" points="423.510565 158.633437 421.038429 160 421.510565 157.105573 419.510565 155.055728 422.274497 154.633437 423.510565 152 424.746633 154.633437 427.510565 155.055728 425.510565 157.105573 425.982701 160"></polygon>
            <polygon id="Star" points="451.510565 222.633437 449.038429 224 449.510565 221.105573 447.510565 219.055728 450.274497 218.633437 451.510565 216 452.746633 218.633437 455.510565 219.055728 453.510565 221.105573 453.982701 224"></polygon>
            <polygon id="Star" points="510.510565 168.633437 508.038429 170 508.510565 167.105573 506.510565 165.055728 509.274497 164.633437 510.510565 162 511.746633 164.633437 514.510565 165.055728 512.510565 167.105573 512.982701 170"></polygon>
            <polygon id="Star" points="277 86.6334369 274.527864 88 275 85.1055728 273 83.0557281 275.763932 82.6334369 277 80 278.236068 82.6334369 281 83.0557281 279 85.1055728 279.472136 88"></polygon>
            <polygon id="Star" points="356.510565 45.6334369 354.038429 47 354.510565 44.1055728 352.510565 42.0557281 355.274497 41.6334369 356.510565 39 357.746633 41.6334369 360.510565 42.0557281 358.510565 44.1055728 358.982701 47"></polygon>
            <polygon id="Star" points="384.510565 109.633437 382.038429 111 382.510565 108.105573 380.510565 106.055728 383.274497 105.633437 384.510565 103 385.746633 105.633437 388.510565 106.055728 386.510565 108.105573 386.982701 111"></polygon>
            <polygon id="Star" points="443.510565 55.6334369 441.038429 57 441.510565 54.1055728 439.510565 52.0557281 442.274497 51.6334369 443.510565 49 444.746633 51.6334369 447.510565 52.0557281 445.510565 54.1055728 445.982701 57"></polygon>
            <polygon id="Star" points="154 145.633437 151.527864 147 152 144.105573 150 142.055728 152.763932 141.633437 154 139 155.236068 141.633437 158 142.055728 156 144.105573 156.472136 147"></polygon>
            <polygon id="Star" points="233 104.633437 230.527864 106 231 103.105573 229 101.055728 231.763932 100.633437 233 98 234.236068 100.633437 237 101.055728 235 103.105573 235.472136 106"></polygon>
            <polygon id="Star" points="320 114.633437 317.527864 116 318 113.105573 316 111.055728 318.763932 110.633437 320 108 321.236068 110.633437 324 111.055728 322 113.105573 322.472136 116"></polygon>
            <polygon id="Star" points="4 76.6334369 1.52786405 78 2 75.1055728 -2.77555756e-17 73.0557281 2.76393202 72.6334369 4 70 5.23606798 72.6334369 8 73.0557281 6 75.1055728 6.47213595 78"></polygon>
            <polygon id="Star" points="83 35.6334369 80.527864 37 81 34.1055728 79 32.0557281 81.763932 31.6334369 83 29 84.236068 31.6334369 87 32.0557281 85 34.1055728 85.472136 37"></polygon>
            <polygon id="Star" points="190 83.6334369 187.527864 85 188 82.1055728 186 80.0557281 188.763932 79.6334369 190 77 191.236068 79.6334369 194 80.0557281 192 82.1055728 192.472136 85"></polygon>
            <polygon id="Star" points="223 158.633437 220.527864 160 221 157.105573 219 155.055728 221.763932 154.633437 223 152 224.236068 154.633437 227 155.055728 225 157.105573 225.472136 160"></polygon>
        </g>
    </g>
</svg>